<?xml version="1.0" standalone="no"?>
<!DOCTYPE svg PUBLIC "-//W3C//DTD SVG 20010904//EN"
 "http://www.w3.org/TR/2001/REC-SVG-20010904/DTD/svg10.dtd">
<svg version="1.0" xmlns="http://www.w3.org/2000/svg"
 width="180.000000pt" height="180.000000pt" viewBox="0 0 180.000000 180.000000"
 preserveAspectRatio="xMidYMid meet">
<metadata>
Created by potrace 1.14, written by Peter Selinger 2001-2017
</metadata>
<g transform="translate(0.000000,180.000000) scale(0.100000,-0.100000)"
fill="#000000" stroke="none">
<path d="M87 1424 c-8 -8 1 -24 13 -24 4 0 10 7 14 15 5 15 -14 21 -27 9z"/>
<path d="M506 1359 c-110 -26 -243 -121 -305 -217 -75 -117 -95 -268 -50 -387
56 -152 168 -257 329 -310 65 -22 219 -24 290 -5 43 11 150 58 150 66 0 2 -19
42 -42 89 -32 65 -46 84 -58 79 -104 -46 -189 -55 -281 -28 -68 20 -148 97
-172 166 -81 239 186 437 431 320 l37 -17 43 82 c24 46 40 88 37 93 -11 17
-78 48 -142 64 -66 17 -204 20 -267 5z"/>
<path d="M949 1356 c-1 0 -2 -207 -3 -458 l-1 -458 102 0 c100 0 103 1 104 23
0 12 1 95 1 185 l1 162 148 0 149 0 0 -185 0 -185 105 0 105 0 -2 458 -3 457
-102 1 -103 1 0 -184 0 -183 -148 0 -149 0 0 174 c0 95 -3 178 -6 183 -5 7
-191 16 -198 9z"/>
</g>
</svg>
